# Blender v3.1.2 OBJ File: ''
# www.blender.org
mtllib ArrowX.mtl
o ArrowX
v 0.047986 -0.047986 -0.000000
v 0.056426 -0.037702 -0.000000
v 0.056426 -0.037702 -0.678626
v 0.047986 -0.047986 -0.678626
v -0.013239 0.066559 0.000000
v -0.025970 0.062697 0.000000
v -0.025970 0.062697 -0.678626
v -0.013239 0.066559 -0.678626
v 0.037702 -0.056426 -0.000000
v 0.037702 -0.056426 -0.678626
v 0.000000 0.067863 0.000000
v 0.000000 0.067863 -0.678626
v 0.025970 -0.062697 -0.000000
v 0.025970 -0.062697 -0.678626
v 0.013239 0.066559 -0.000000
v 0.013239 0.066559 -0.678626
v 0.013239 -0.066559 -0.000000
v 0.013239 -0.066559 -0.678626
v 0.025970 0.062697 0.000000
v 0.025970 0.062697 -0.678626
v -0.000000 -0.067863 -0.000000
v -0.000000 -0.067863 -0.678626
v 0.037702 0.056426 -0.000000
v 0.037702 0.056426 -0.678626
v -0.013239 -0.066559 0.000000
v -0.013239 -0.066559 -0.678626
v 0.047986 0.047986 -0.000000
v 0.047986 0.047986 -0.678626
v -0.025970 -0.062697 -0.000000
v -0.025970 -0.062697 -0.678626
v 0.056426 0.037702 -0.000000
v 0.056426 0.037702 -0.678626
v -0.037702 -0.056426 0.000000
v -0.037702 -0.056426 -0.678626
v 0.062697 0.025970 -0.000000
v 0.062697 0.025970 -0.678626
v -0.066559 0.013239 0.000000
v -0.067863 0.000000 0.000000
v -0.067863 0.000000 -0.678626
v -0.066559 0.013239 -0.678626
v -0.047986 -0.047986 0.000000
v -0.047986 -0.047986 -0.678626
v 0.066559 0.013239 -0.000000
v 0.066559 0.013239 -0.678626
v -0.062697 0.025970 0.000000
v -0.062697 0.025970 -0.678626
v -0.056426 -0.037702 0.000000
v -0.056426 -0.037702 -0.678626
v 0.067863 -0.000000 -0.000000
v 0.067863 -0.000000 -0.678626
v -0.056426 0.037702 0.000000
v -0.056426 0.037702 -0.678626
v -0.062697 -0.025970 0.000000
v -0.062697 -0.025970 -0.678626
v 0.066559 -0.013239 -0.000000
v 0.066559 -0.013239 -0.678626
v -0.047986 0.047986 0.000000
v -0.047986 0.047986 -0.678626
v -0.066559 -0.013239 0.000000
v -0.066559 -0.013239 -0.678626
v 0.062697 -0.025970 -0.000000
v 0.062697 -0.025970 -0.678626
v -0.037702 0.056426 0.000000
v -0.037702 0.056426 -0.678626
v 0.113052 -0.022487 -0.678626
v 0.106493 -0.044111 -0.678626
v -0.081506 0.081506 -0.678626
v -0.064039 0.095841 -0.678626
v -0.113052 -0.022487 -0.678626
v -0.115267 0.000000 -0.678626
v 0.095841 -0.064039 -0.678626
v -0.044111 0.106493 -0.678626
v 0.081506 -0.081506 -0.678626
v -0.022487 0.113052 -0.678626
v 0.064039 -0.095841 -0.678626
v 0.000000 0.115267 -0.678626
v 0.044111 -0.106493 -0.678626
v 0.022487 0.113052 -0.678626
v 0.022487 -0.113052 -0.678626
v 0.044111 0.106493 -0.678626
v -0.000000 -0.115267 -0.678626
v 0.064039 0.095841 -0.678626
v -0.022487 -0.113052 -0.678626
v 0.081506 0.081506 -0.678626
v -0.044111 -0.106493 -0.678626
v 0.095841 0.064039 -0.678626
v -0.064039 -0.095841 -0.678626
v 0.106493 0.044111 -0.678626
v -0.113052 0.022487 -0.678626
v -0.081506 -0.081506 -0.678626
v 0.113052 0.022487 -0.678626
v -0.106493 0.044111 -0.678626
v -0.095841 -0.064039 -0.678626
v 0.115267 -0.000000 -0.678626
v -0.095841 0.064039 -0.678626
v -0.106493 -0.044111 -0.678626
v 0.000000 0.000000 -1.000000
vt 0.000000 0.000000
vt 0.000000 0.000000
vt 0.000000 0.000000
vt 0.000000 0.000000
vt 0.000000 0.000000
vt 0.000000 0.000000
vt 0.000000 0.000000
vt 0.000000 0.000000
vt 0.000000 0.000000
vt 0.000000 0.000000
vt 0.000000 0.000000
vt 0.000000 0.000000
vt 0.000000 0.000000
vt 0.000000 0.000000
vt 0.000000 0.000000
vt 0.000000 0.000000
vt 0.000000 0.000000
vt 0.000000 0.000000
vt 0.000000 0.000000
vt 0.000000 0.000000
vt 0.000000 0.000000
vt 0.000000 0.000000
vt 0.000000 0.000000
vt 0.000000 0.000000
vt 0.000000 0.000000
vt 0.000000 0.000000
vt 0.000000 0.000000
vt 0.000000 0.000000
vt 0.000000 0.000000
vt 0.000000 0.000000
vt 0.000000 0.000000
vt 0.000000 0.000000
vt 0.000000 0.000000
vt 0.000000 0.000000
vt 0.000000 0.000000
vt 0.000000 0.000000
vt 0.000000 0.000000
vt 0.000000 0.000000
vt 0.000000 0.000000
vt 0.000000 0.000000
vt 0.000000 0.000000
vt 0.000000 0.000000
vt 0.000000 0.000000
vt 0.000000 0.000000
vt 0.000000 0.000000
vt 0.000000 0.000000
vt 0.000000 0.000000
vt 0.000000 0.000000
vt 0.000000 0.000000
vt 0.000000 0.000000
vt 0.000000 0.000000
vt 0.000000 0.000000
vt 0.000000 0.000000
vt 0.000000 0.000000
vt 0.000000 0.000000
vt 0.000000 0.000000
vt 0.000000 0.000000
vt 0.000000 0.000000
vt 0.000000 0.000000
vt 0.000000 0.000000
vt 0.000000 0.000000
vt 0.000000 0.000000
vt 0.000000 0.000000
vt 0.000000 0.000000
vt 0.000000 0.000000
vt 0.000000 0.000000
vt 0.000000 0.000000
vt 0.000000 0.000000
vt 0.000000 0.000000
vt 0.000000 0.000000
vt 0.000000 0.000000
vt 0.000000 0.000000
vt 0.000000 0.000000
vt 0.000000 0.000000
vt 0.000000 0.000000
vt 0.000000 0.000000
vt 0.000000 0.000000
vt 0.000000 0.000000
vt 0.000000 0.000000
vt 0.000000 0.000000
vt 0.000000 0.000000
vt 0.000000 0.000000
vt 0.000000 0.000000
vt 0.000000 0.000000
vt 0.000000 0.000000
vt 0.000000 0.000000
vt 0.000000 0.000000
vt 0.000000 0.000000
vt 0.000000 0.000000
vt 0.000000 0.000000
vt 0.000000 0.000000
vt 0.000000 0.000000
vt 0.000000 0.000000
vt 0.000000 0.000000
vt 0.000000 0.000000
vt 0.000000 0.000000
vt 0.000000 0.000000
vn 0.7071 -0.7071 -0.0000
vn 0.4834 -0.4834 0.7298
vn 0.5684 -0.3798 0.7298
vn 0.8315 -0.5556 -0.0000
vn -0.1951 0.9808 0.0000
vn -0.1334 0.6705 0.7298
vn -0.2616 0.6316 0.7298
vn -0.3827 0.9239 0.0000
vn 0.5556 -0.8315 -0.0000
vn 0.3798 -0.5684 0.7298
vn 0.0000 1.0000 -0.0000
vn 0.0000 0.6836 0.7298
vn 0.3827 -0.9239 -0.0000
vn 0.2616 -0.6316 0.7299
vn 0.1951 0.9808 -0.0000
vn 0.1334 0.6705 0.7298
vn 0.1951 -0.9808 -0.0000
vn 0.1334 -0.6705 0.7298
vn 0.3827 0.9239 -0.0000
vn 0.2616 0.6316 0.7299
vn -0.0000 -1.0000 -0.0000
vn -0.0000 -0.6836 0.7298
vn 0.5556 0.8315 -0.0000
vn 0.3798 0.5684 0.7298
vn -0.1951 -0.9808 0.0000
vn -0.1334 -0.6705 0.7298
vn 0.7071 0.7071 -0.0000
vn 0.4834 0.4834 0.7298
vn -0.3827 -0.9239 0.0000
vn -0.2616 -0.6316 0.7298
vn 0.8315 0.5556 -0.0000
vn 0.5684 0.3798 0.7298
vn -0.5556 -0.8315 0.0000
vn -0.3798 -0.5684 0.7298
vn 0.9239 0.3827 -0.0000
vn 0.6316 0.2616 0.7299
vn -0.9808 0.1951 0.0000
vn -0.6705 0.1334 0.7298
vn -0.6836 0.0000 0.7298
vn -1.0000 0.0000 0.0000
vn -0.7071 -0.7071 0.0000
vn -0.4834 -0.4834 0.7298
vn 0.9808 0.1951 -0.0000
vn 0.6705 0.1334 0.7298
vn -0.9239 0.3827 0.0000
vn -0.6316 0.2616 0.7299
vn -0.8315 -0.5556 0.0000
vn -0.5684 -0.3798 0.7298
vn 1.0000 -0.0000 -0.0000
vn 0.6836 -0.0000 0.7298
vn -0.8315 0.5556 0.0000
vn -0.5684 0.3798 0.7298
vn -0.9239 -0.3827 0.0000
vn -0.6316 -0.2616 0.7298
vn 0.9808 -0.1951 -0.0000
vn 0.6705 -0.1334 0.7298
vn -0.7071 0.7071 0.0000
vn -0.4834 0.4834 0.7298
vn -0.9808 -0.1951 0.0000
vn -0.6705 -0.1334 0.7298
vn 0.9239 -0.3827 -0.0000
vn 0.6316 -0.2616 0.7298
vn -0.5556 0.8315 0.0000
vn -0.3798 0.5684 0.7298
vn 0.7700 -0.3189 0.5526
vn 0.8174 -0.1626 0.5526
vn -0.4630 0.6930 0.5526
vn -0.5893 0.5893 0.5526
vn -0.8334 0.0000 0.5526
vn -0.8174 -0.1626 0.5526
vn 0.6930 -0.4630 0.5526
vn -0.3189 0.7700 0.5526
vn 0.5893 -0.5893 0.5526
vn -0.1626 0.8174 0.5526
vn 0.4630 -0.6930 0.5526
vn 0.0000 0.8334 0.5526
vn 0.3189 -0.7700 0.5526
vn 0.1626 0.8174 0.5526
vn 0.1626 -0.8174 0.5526
vn 0.3189 0.7700 0.5526
vn -0.0000 -0.8334 0.5526
vn 0.4630 0.6930 0.5526
vn -0.1626 -0.8174 0.5526
vn 0.5893 0.5893 0.5526
vn -0.3189 -0.7700 0.5526
vn 0.6930 0.4630 0.5526
vn -0.4630 -0.6930 0.5526
vn 0.7700 0.3189 0.5526
vn -0.8174 0.1626 0.5526
vn -0.5893 -0.5893 0.5526
vn 0.8174 0.1626 0.5526
vn -0.7700 0.3189 0.5526
vn -0.6930 -0.4630 0.5526
vn 0.8334 0.0000 0.5526
vn -0.6930 0.4630 0.5526
vn -0.7700 -0.3189 0.5526
vn 0.2736 -0.9003 -0.3384
vn 0.0000 -0.0000 1.0000
usemtl None
s 1
f 1/1/1 4/2/2 3/3/3 2/4/4
f 5/5/5 8/6/6 7/7/7 6/8/8
f 9/9/9 10/10/10 4/2/2 1/1/1
f 11/11/11 12/12/12 8/6/6 5/5/5
f 13/13/13 14/14/14 10/10/10 9/9/9
f 15/15/15 16/16/16 12/12/12 11/11/11
f 17/17/17 18/18/18 14/14/14 13/13/13
f 19/19/19 20/20/20 16/16/16 15/15/15
f 21/21/21 22/22/22 18/18/18 17/17/17
f 23/23/23 24/24/24 20/20/20 19/19/19
f 25/25/25 26/26/26 22/22/22 21/21/21
f 27/27/27 28/28/28 24/24/24 23/23/23
f 29/29/29 30/30/30 26/26/26 25/25/25
f 31/31/31 32/32/32 28/28/28 27/27/27
f 33/33/33 34/34/34 30/30/30 29/29/29
f 35/35/35 36/36/36 32/32/32 31/31/31
f 37/37/37 40/38/38 39/39/39 38/40/40
f 41/41/41 42/42/42 34/34/34 33/33/33
f 43/43/43 44/44/44 36/36/36 35/35/35
f 45/45/45 46/46/46 40/38/38 37/37/37
f 47/47/47 48/48/48 42/42/42 41/41/41
f 49/49/49 50/50/50 44/44/44 43/43/43
f 51/51/51 52/52/52 46/46/46 45/45/45
f 53/53/53 54/54/54 48/48/48 47/47/47
f 55/55/55 56/56/56 50/50/50 49/49/49
f 57/57/57 58/58/58 52/52/52 51/51/51
f 59/59/59 60/60/60 54/54/54 53/53/53
f 61/61/61 62/62/62 56/56/56 55/55/55
f 63/63/63 64/64/64 58/58/58 57/57/57
f 38/40/40 39/39/39 60/60/60 59/59/59
f 2/4/4 3/3/3 62/62/62 61/61/61
f 6/8/8 7/7/7 64/64/64 63/63/63
f 62/62/62 66/65/65 65/66/66 56/56/56
f 64/64/64 68/67/67 67/68/68 58/58/58
f 39/39/39 70/69/69 69/70/70 60/60/60
f 3/3/3 71/71/71 66/65/65 62/62/62
f 7/7/7 72/72/72 68/67/67 64/64/64
f 4/2/2 73/73/73 71/71/71 3/3/3
f 8/6/6 74/74/74 72/72/72 7/7/7
f 10/10/10 75/75/75 73/73/73 4/2/2
f 12/12/12 76/76/76 74/74/74 8/6/6
f 14/14/14 77/77/77 75/75/75 10/10/10
f 16/16/16 78/78/78 76/76/76 12/12/12
f 18/18/18 79/79/79 77/77/77 14/14/14
f 20/20/20 80/80/80 78/78/78 16/16/16
f 22/22/22 81/81/81 79/79/79 18/18/18
f 24/24/24 82/82/82 80/80/80 20/20/20
f 26/26/26 83/83/83 81/81/81 22/22/22
f 28/28/28 84/84/84 82/82/82 24/24/24
f 30/30/30 85/85/85 83/83/83 26/26/26
f 32/32/32 86/86/86 84/84/84 28/28/28
f 34/34/34 87/87/87 85/85/85 30/30/30
f 36/36/36 88/88/88 86/86/86 32/32/32
f 40/38/38 89/89/89 70/69/69 39/39/39
f 42/42/42 90/90/90 87/87/87 34/34/34
f 44/44/44 91/91/91 88/88/88 36/36/36
f 46/46/46 92/92/92 89/89/89 40/38/38
f 48/48/48 93/93/93 90/90/90 42/42/42
f 50/50/50 94/94/94 91/91/91 44/44/44
f 52/52/52 95/95/95 92/92/92 46/46/46
f 54/54/54 96/96/96 93/93/93 48/48/48
f 56/56/56 65/66/66 94/94/94 50/50/50
f 58/58/58 67/68/68 95/95/95 52/52/52
f 60/60/60 69/70/70 96/96/96 54/54/54
f 75/75/75 97/97/97 73/73/73
f 76/76/76 97/97/97 74/74/74
f 77/77/77 97/97/97 75/75/75
f 78/78/78 97/97/97 76/76/76
f 79/79/79 97/97/97 77/77/77
f 80/80/80 97/97/97 78/78/78
f 81/81/81 97/97/97 79/79/79
f 82/82/82 97/97/97 80/80/80
f 83/83/83 97/97/97 81/81/81
f 84/84/84 97/97/97 82/82/82
f 85/85/85 97/97/97 83/83/83
f 86/86/86 97/97/97 84/84/84
f 87/87/87 97/97/97 85/85/85
f 88/88/88 97/97/97 86/86/86
f 89/89/89 97/97/97 70/69/69
f 90/90/90 97/97/97 87/87/87
f 91/91/91 97/97/97 88/88/88
f 92/92/92 97/97/97 89/89/89
f 93/93/93 97/97/97 90/90/90
f 94/94/94 97/97/97 91/91/91
f 95/95/95 97/97/97 92/92/92
f 96/96/96 97/97/97 93/93/93
f 65/66/66 97/97/97 94/94/94
f 67/68/68 97/97/97 95/95/95
f 69/70/70 97/97/97 96/96/96
f 66/65/65 97/97/97 65/66/66
f 68/67/67 97/97/97 67/68/68
f 70/69/69 97/97/97 69/70/70
f 71/71/71 97/97/97 66/65/65
f 72/72/72 97/97/97 68/67/67
f 73/73/73 97/97/97 71/71/71
f 74/74/74 97/97/97 72/72/72
f 2/4/98 61/61/98 55/55/98 49/49/98 43/43/98 35/35/98 31/31/98 27/27/98 23/23/98 19/19/98 15/15/98 11/11/98 5/5/98 6/8/98 63/63/98 57/57/98 51/51/98 45/45/98 37/37/98 38/40/98 59/59/98 53/53/98 47/47/98 41/41/98 33/33/98 29/29/98 25/25/98 21/21/98 17/17/98 13/13/98 9/9/98 1/1/98
