<svg xmlns="http://www.w3.org/2000/svg" width="512" height="512" viewBox="0 0 512 512">
  <defs>
    <style>
      .cls-1 {
        fill: none;
        stroke: #1a1a1a;
        stroke-linecap: round;
        stroke-linejoin: bevel;
        stroke-width: 9.56px;
        fill-rule: evenodd;
      }
    </style>
  </defs>
  <path id="Buoy" class="cls-1" d="M237,160c-4.781-7.974-18.144-13.452-23-33-3.366-13.548-1.7-27.055,15-40a39.736,39.736,0,0,1,50,1c14.183,12.3,17.286,32.33,11,46-5.926,12.889-17.827,18.351-21,25-3.9,8.181,40.372,107.418,41,125,0.493,13.813-35.64,91.562-46.12,137.363C257.718,448.292,255.352,444.976,250,445c-4.892.022-7.635,7.094-12.936-13.772C223,375.878,189.094,301.389,189,285,188.868,261.924,242.694,169.5,237,160Z"/>
  <path id="SeaSurface" class="cls-1" d="M0,265c0.747,0.276,26.493,59.805,50,59,25.725-.881,62.869-58,63-58,0.545,0,46.559,56.567,77,55,29.011-1.493,69.42-57,67-57-2.288,0,46.3,63.112,76,62,28.266-1.058,68.314-61,67-61-0.867,0,41.493,57.342,68,57,24.727-.319,44.789-57.065,44-57"/>
</svg>
