<svg xmlns="http://www.w3.org/2000/svg" width="512" height="512" viewBox="0 0 512 512">
  <defs>
    <style>
      .cls-1 {
        fill: none;
        stroke-width: 15px;
      }

      .cls-1, .cls-2, .cls-3 {
        stroke: #1a1a1a;
        fill-rule: evenodd;
      }

      .cls-2, .cls-3 {
        fill: #1a1a1a;
      }

      .cls-2 {
        stroke-width: 20px;
      }

      .cls-3 {
        stroke-width: 8px;
      }
    </style>
  </defs>
  <path id="Rounded_Rectangle_1" data-name="Rounded Rectangle 1" class="cls-1" d="M411,180c48.294,61.225,52.951,127.51,3,208a10,10,0,0,1-10,10H108a10,10,0,0,1-10-10c-49.951-80.49-45.294-146.775,3-208C174.661,86.616,337.339,86.616,411,180Z"/>
  <path class="cls-2" d="M272.717,391.993L225.1,274.9c-3.683,5.536-7.734,10.417-10.349,9.664-3.565-1.026-2.839-12.053-2.277-20.454,0.707-10.548,1.185-21.149,1.474-32.106q11.97,11.724,23.86,22.77c6.46,5.992,14.888,13.879,12.892,16.991-1.5,2.342-8.4,1.187-15.4-.7l47.687,117.273Z"/>
  <path class="cls-3" d="M84.052,348.56l-4.1-9.12,40-18,4.1,9.12Zm0,0-4.1-9.12,40-18,4.1,9.12ZM76.075,229.818l2.89-9.573,41.992,12.676-2.89,9.573Zm0,0,2.89-9.573,41.992,12.676-2.89,9.573Zm74.194-87.382,8.331-5.531,24.263,36.542-8.331,5.531-2.8-4.222Q161,158.6,150.269,142.436Zm0,0,8.331-5.531,24.263,36.542-8.331,5.531ZM84.052,348.56l-4.1-9.12,40-18,4.1,9.12ZM76.075,229.818l2.89-9.573,41.992,12.676-2.89,9.573Zm74.194-87.382,8.331-5.531,24.263,36.542-8.331,5.531ZM428,349l4.111-9.134-40.071-18.029-4.111,9.134Zm0,0,4.111-9.134-40.071-18.029-4.111,9.134Zm7.991-118.934-2.895-9.589-42.066,12.7,2.9,9.589Zm0,0-2.895-9.589-42.066,12.7,2.9,9.589Zm-74.325-87.524L353.318,137l-24.306,36.6,8.346,5.54,2.808-4.229Zm0,0L353.318,137l-24.306,36.6,8.346,5.54ZM428,349l4.111-9.134-40.071-18.029-4.111,9.134Zm7.991-118.934-2.895-9.589-42.066,12.7,2.9,9.589Zm-74.325-87.524L353.318,137l-24.306,36.6,8.346,5.54ZM250,115h10v43H250V115Z"/>
</svg>
