<svg xmlns="http://www.w3.org/2000/svg" width="512" height="512" viewBox="0 0 512 512">
  <defs>
    <style>
      .cls-1 {
        fill: none;
        stroke: #1a1a1a;
        stroke-width: 8px;
        fill-rule: evenodd;
      }
    </style>
  </defs>
  <path class="cls-1" d="M24,286.773a225.519,225.519,0,0,0,27-18.752,259.006,259.006,0,0,0,47-50.007c10.2,44.4,43.477,73.054,77.83,69.535C205.6,284.5,231.993,257.663,241,219.264c8.71,42.428,39.805,70.7,72.623,68.285,28.823-2.12,54.622-27.64,63.377-64.534a238.807,238.807,0,0,0,45,42.505,209.249,209.249,0,0,0,29,17.5"/>
  <path class="cls-1" d="M47,179.259a229.727,229.727,0,0,0,35-22.5A261.784,261.784,0,0,0,126,113c13.841,43.644,48.34,69.279,82.244,64.156,27.879-4.213,52.018-28.635,62.756-62.906,15.7,42.009,49.733,66.564,84.007,62.906C384.18,174.042,409.751,151.059,423,118c13.124,19.924,28.542,36.772,46,50.006a168.685,168.685,0,0,0,19,12.5"/>
  <path class="cls-1" d="M39,395.537a193.04,193.04,0,0,0,41-30,226.545,226.545,0,0,0,34-41.255c11.386,48.49,48.1,78.6,84.326,73.051,29.506-4.517,55.566-32.31,64.674-71.8,13.193,46.795,49.055,75.69,85.426,71.8,30.462-3.257,57.633-29.092,69.574-66.8,8.723,21.509,22.528,38.9,40,48.756a67.46,67.46,0,0,0,30,8.751"/>
</svg>
