<svg xmlns="http://www.w3.org/2000/svg" width="512" height="512" viewBox="0 0 512 512">
  <defs>
    <style>
      .cls-1 {
        fill: none;
        stroke: #1a1a1a;
        stroke-width: 8px;
        fill-rule: evenodd;
      }
    </style>
  </defs>
  <path class="cls-1" d="M28,293a133.341,133.341,0,0,0,27-15c16.434-11.858,30.861-38.588,47.282-39.979,29.911-2.534,47.232,57.186,77.548,55.6C207.919,292.152,217.46,239.943,245,239c28.894-.989,43.742,55.748,72.623,54.621,26.662-1.04,37.236-51.667,63.444-51.323,15.072,0.2,31.4,24.757,44.933,33.7a122.8,122.8,0,0,0,29,14"/>
  <path class="cls-1" d="M51,207a134.528,134.528,0,0,0,35-18c12.505-9.035,27.692-33.243,43.647-34.982,31.631-3.446,50.672,52.751,82.6,51.3,27.619-1.255,35.412-49.047,63.21-50.313,29.569-1.347,51.86,51.311,83.553,50.313,29.321-.923,42.325-49.815,67.575-47.354C442.7,159.535,453.464,185.063,473,198a108.234,108.234,0,0,0,19,10"/>
  <path class="cls-1" d="M43,380c16.079-5.677,29.7-13.642,41-24,7.492-6.864,20.733-30.959,33.852-32.98,29.615-4.561,51.992,60.06,84.474,58.413,28.248-1.432,36.217-55.845,64.647-57.29,30.246-1.536,53.037,58.429,85.453,57.29,30.208-1.061,45.652-57.095,69.111-53.92C436.8,329.579,441.359,355.776,462,367c8.842,4.808,18.881,7.053,30,7"/>
</svg>
