<svg xmlns="http://www.w3.org/2000/svg" width="512" height="512" viewBox="0 0 512 512">
  <defs>
    <style>
      .cls-1 {
        fill: none;
        stroke: #1a1a1a;
        stroke-width: 20px;
        fill-rule: evenodd;
      }
    </style>
  </defs>
  <path id="WindTop" class="cls-1" d="M117,178c96.486,32.553,201.682,46.769,260,0,20.145-16.156,26.414-30.873,26-41-1.07-26.169-36.825-52.812-63-45-9.183,2.741-23.774,11.71-23,25,0.6,10.338,10.406,20.516,25,23"/>
  <path id="WindMiddle" class="cls-1" d="M64.388,323.7c66.094,22.349,138.154,32.108,178.1,0,13.8-11.092,18.094-21.2,17.81-28.148-0.733-17.966-25.226-36.257-43.155-30.894-6.291,1.882-16.286,8.04-15.756,17.163,0.413,7.1,7.129,14.085,17.126,15.791"/>
  <path id="WindBottom" class="cls-1" d="M149,391c96.486,32.553,201.682,46.769,260,0,20.145-16.156,26.414-30.873,26-41-1.07-26.169-36.825-52.812-63-45-9.183,2.741-23.774,11.71-23,25,0.6,10.338,10.406,20.516,25,23"/>
</svg>
